<?xml version="1.0" encoding="iso-8859-1"?>
<!-- Generator: Adobe Illustrator 18.0.0, SVG Export Plug-In . SVG Version: 6.00 Build 0)  -->
<!DOCTYPE svg PUBLIC "-//W3C//DTD SVG 1.1//EN" "http://www.w3.org/Graphics/SVG/1.1/DTD/svg11.dtd">
<svg version="1.1" id="Capa_1" xmlns="http://www.w3.org/2000/svg" xmlns:xlink="http://www.w3.org/1999/xlink" x="0px" y="0px"
	 viewBox="0 0 297 297" style="enable-background:new 0 0 297 297;" xml:space="preserve">
<g>
	<path d="M187.434,9.809C171.504,1.972,156.001,0,143.126,0c-26.095,0-40.933,12.748-53.991,25.805
		C73.796,41.145,60.213,44.735,60.13,44.757c-3.428,0.818-5.875,3.811-6.03,7.332c-0.154,3.523,2.123,6.719,5.467,7.833
		c6.698,2.233,13.933,3.512,21.933,3.824v16.34v0.002c-10,3.425-12.816,16.854-7.499,31.929c0.835,2.367,2.654,4.074,4.856,4.831
		c-0.017,1.56-0.056,3.181-0.08,4.865c-0.246,17.076-0.724,39.537,4.662,59.909C56.073,184.277,27.5,206.469,27.5,235.555v27.889
		c0,3.061,1.921,5.845,4.692,7.145C75.147,290.753,115.725,297,149.427,297c17.741,0,33.639-1.733,46.975-4.076
		c41.997-7.384,68.135-21.982,69.234-22.6c2.486-1.397,3.863-4.028,3.863-6.881v-27.889c0-29.108-27.747-51.311-54.621-53.938
		c5.384-20.37,5.157-42.83,4.911-59.904c-0.025-1.82-0.005-3.563-0.022-5.237c1.762-0.883,2.852-2.419,3.559-4.425
		c5.124-14.521,2.172-27.51-6.828-31.488v-2.939C217.5,72.033,221.802,26.72,187.434,9.809z M194.574,114.244
		c4.061-4.26,15.84-17.416,15.84-17.416c0.155,1.986-0.035,4.99-1.172,8.695c-3.05,1.092-5.235,3.998-5.235,7.425
		c0,2.751,0.043,5.769,0.089,8.993c0.362,25.031,0.908,62.861-18.249,82.297c-8.696,8.822-20.645,13.11-36.526,13.11
		s-27.831-4.288-36.526-13.11c-19.157-19.436-18.611-57.266-18.25-82.297c0.047-3.225,0.09-6.242,0.09-8.993
		c0-3.816-2.708-6.999-6.307-7.733c-0.995-3.355-1.2-6.108-1.093-8.041l14.732,17.502c3.727,3.507,8.795,5.594,13.549,5.594
		c4.859-0.001,9.721-1.83,13.487-5.483l5.127-5.007c0.689-0.668,1.588-1.061,2.468-1.061h23.355c0.88,0,1.78,0.394,2.438,1.031
		l4.93,4.836C174.855,121.892,187.332,121.839,194.574,114.244z M201.5,83.218l-18.345,20.095c-1.366,1.267-3.511,1.254-4.831-0.026
		l-4.921-4.947c-3.66-3.549-8.433-5.62-13.451-5.62h-23.355c-5.017,0-9.797,2.071-13.471,5.634l-5.129,5.056
		c-1.285,1.248-3.57,1.368-4.947,0.295L96.5,84.568V63.102c38-4.401,74.784-27.697,87.624-36.543
		C204.992,43.34,201.5,75.821,201.5,76.15C201.5,77.917,201.5,83.218,201.5,83.218z M100.391,36.968
		c11.588-11.589,22.816-21.182,42.92-21.182c6.947,0,14.757,1.181,23.332,3.521c-17.298,10.751-49.159,27.726-79.121,28.69
		C91.589,45.045,95.943,41.415,100.391,36.968z M43.5,235.555c0-21.279,24.899-38.413,45.475-38.413
		c0.033,0,0.088-0.005,0.121-0.005c3.137,6.69,6.93,12.865,12.17,18.183c8.304,8.425,19.234,13.874,31.234,16.318v49.042
		c-27-1.728-57-7.946-89-22.301V235.555z M253.5,258.611c-8,4.115-30.031,13.452-60.247,18.765
		c-12.721,2.236-27.753,3.87-44.753,3.825v-48.075c0,0.001,0.489,0.009,0.654,0.009c20.045,0,36.2-5.993,47.852-17.815
		c5.243-5.319,9.34-11.497,12.477-18.191c0.088,0.003-0.093,0.014-0.005,0.014c20.48,0,44.022,16.78,44.022,38.413V258.611z"/>
	<path d="M165.145,125.719c0-4.359-3.533-8-7.894-8h-17.891c-4.359,0-7.893,3.641-7.893,8s3.534,8,7.893,8h17.891
		C161.612,133.719,165.145,130.078,165.145,125.719z"/>
	<path d="M160.933,237.659c-2.074,0-4.105,0.842-5.577,2.315c-1.475,1.463-2.315,3.504-2.315,5.578c0,2.072,0.841,4.115,2.315,5.577
		c1.473,1.474,3.503,2.315,5.577,2.315c2.083,0,4.115-0.842,5.578-2.315c1.474-1.462,2.316-3.494,2.316-5.577
		c0-2.084-0.842-4.115-2.316-5.578C165.048,238.501,163.016,237.659,160.933,237.659z"/>
	<path d="M160.933,258.708c-2.074,0-4.115,0.841-5.577,2.315c-1.475,1.462-2.315,3.493-2.315,5.577c0,2.073,0.841,4.115,2.315,5.578
		c1.473,1.474,3.503,2.315,5.577,2.315c2.073,0,4.115-0.842,5.588-2.315c1.464-1.474,2.306-3.505,2.306-5.578
		c0-2.073-0.842-4.115-2.306-5.577C165.048,259.549,163.016,258.708,160.933,258.708z"/>
</g>
<g>
</g>
<g>
</g>
<g>
</g>
<g>
</g>
<g>
</g>
<g>
</g>
<g>
</g>
<g>
</g>
<g>
</g>
<g>
</g>
<g>
</g>
<g>
</g>
<g>
</g>
<g>
</g>
<g>
</g>
</svg>
